<?xml version="1.0" encoding="utf-8"?>
<!-- Generator: Adobe Illustrator 16.0.0, SVG Export Plug-In . SVG Version: 6.00 Build 0)  -->
<!DOCTYPE svg PUBLIC "-//W3C//DTD SVG 1.1//EN" "http://www.w3.org/Graphics/SVG/1.1/DTD/svg11.dtd">
<svg version="1.1"
	 id="svg8817" sodipodi:docname="seglogo.svg" inkscape:version="0.91 r13725" xmlns:dc="http://purl.org/dc/elements/1.1/" xmlns:cc="http://creativecommons.org/ns#" xmlns:rdf="http://www.w3.org/1999/02/22-rdf-syntax-ns#" xmlns:svg="http://www.w3.org/2000/svg" xmlns:sodipodi="http://sodipodi.sourceforge.net/DTD/sodipodi-0.dtd" xmlns:inkscape="http://www.inkscape.org/namespaces/inkscape"
	 xmlns="http://www.w3.org/2000/svg" xmlns:xlink="http://www.w3.org/1999/xlink" x="0px" y="0px" width="545.866px"
	 height="66.162px" viewBox="17.353 344.821 545.866 66.162" enable-background="new 17.353 344.821 545.866 66.162"
	 xml:space="preserve">
<sodipodi:namedview  inkscape:window-maximized="1" inkscape:window-y="-8" inkscape:current-layer="layer1" inkscape:window-x="-8" inkscape:pageshadow="2" inkscape:document-units="px" inkscape:pageopacity="0.0" inkscape:window-height="803" inkscape:window-width="1536" showgrid="false" inkscape:cy="602.09683" inkscape:cx="665.63632" inkscape:zoom="10.24" borderopacity="1.0" bordercolor="#666666" pagecolor="#ffffff" id="base">
	</sodipodi:namedview>
<g id="layer1" inkscape:groupmode="layer" inkscape:label="Capa 1">
	<g id="layer1-8" transform="translate(1.5518643,93.90514)" inkscape:label="Capa 1">
		<g id="g4187" transform="matrix(0.84027762,0,0,0.84027762,-301.93648,313.13155)">
			<g id="text4239" transform="matrix(1.2135982,0,-0.13948225,1.3769781,27.058487,-378.84851)">
				<path id="path4244" sodipodi:nodetypes="ccccccccccccccccccccccccccccc" inkscape:connector-curvature="0" fill="#FFFFFF" d="
					M339.852,222.115l-2.975,11.87h8.353l3.003-11.87h4.577l-2.946,11.87h9.611l-1.115,4.405h-9.611l-2.346,9.554h9.725l-1.03,4.376
					h-9.811l-2.975,11.842h-4.577l2.946-11.842H332.3l-2.946,11.842h-4.605l2.975-11.842h-9.439l1.058-4.376h9.439l2.403-9.554
					h-9.611l1.116-4.405h9.61l2.918-11.87H339.852z"/>
			</g>
			<path id="path4139" sodipodi:nodetypes="ccccccccccccccccc" inkscape:connector-curvature="0" fill="#FFFFFF" d="M431.032-22.466
				H452.2c7.436,0.186,12.075-5.574,7.224-11.844c-7.102-5.582-15.061-8.664-21.924-13.356c-4.121-2.803-5.775-7.39-5.796-11.675
				c-0.35-8.095,7.737-13.466,14.532-14.532l20.496-0.169v7.308H447.58c-4.818,0.863-8.235,3.65-7.812,7.393
				c-0.058,2.086,0.98,3.614,2.52,4.703c8.297,6.384,18.901,10.531,24.444,16.129c2.027,2.828,2.769,6.423,2.52,9.575
				c-0.227,4.407-1.253,7.69-4.62,10.836c-3.314,2.422-7.719,2.925-11.76,2.94h-21.84V-22.466z"/>
			<path id="path4141" sodipodi:nodetypes="ccccccccccccccccccccccc" inkscape:connector-curvature="0" fill="#FFFFFF" d="
				M484.544-38.696l22.766-1.192c-6.797-10.563-20.172-9.667-24.418-0.01l0,0l0,0l0,0c-4.047,6.877,1.711,18.889,11.486,19.464
				c5.169,0.013,9.126-2.58,11.761-6.982l0,0l0.038-0.074l0,0l0,0l0,0l0.113-0.038l0,0l0.037-0.074l6.347,3.647
				c-6.484,14.109-28.776,11.725-33.698,3.139c-3.644-4.218-5.674-9.599-5.365-14.803c1.087-11.745,7.959-19.127,19.957-20.164
				c14.645-0.169,22.176,9.53,22.867,22.814l-31.594,0.999L484.544-38.696z"/>
			<path id="path4143" sodipodi:nodetypes="cccccccccccccccccc" inkscape:connector-curvature="0" fill="#FFFFFF" d="M529.522-4.573
				c5.437,1.52,11.87,3.033,17.388,1.175c5.26-1.739,8.743-6.315,8.4-11.759v-18.48c-0.024-7.367-4.938-15.055-12.6-15.12
				c-9.422,0.284-13.915,6.024-13.86,15.287c0.578,12.604,15.651,15.307,23.856,9.241v7.727
				c-16.737,5.411-31.083-3.219-31.164-18.311c1.266-13.13,9.071-20.816,21.168-21.168c10.993,0.149,20.496,7.615,20.58,19.152
				v21.673c-1.558,12.835-9.753,19.649-21.84,19.823c-4.746,0.035-9.81-0.945-13.944-2.604l0,0L529.522-4.573L529.522-4.573z"/>
			<path id="path4145" sodipodi:nodetypes="cccccccccccc" inkscape:connector-curvature="0" fill="#FFFFFF" d="M569.808-55.478
				h7.308v24.444c0.014,6.036,4.224,10.048,9.912,10.08c5.628-0.136,8.449-4.914,9.24-9.911c0-8.204,0-16.408,0-24.612h7.308
				c0.252,8.714,0.013,17.222,0.084,24.612c-0.056,9.597-8.685,16.835-16.632,17.052c-11.52,0.113-17.174-8.256-17.22-18.396
				v-23.267V-55.478z"/>
			<path id="path4147" sodipodi:nodetypes="cccccccccc" inkscape:connector-curvature="0" fill="#FFFFFF" d="M611.464-55.478h7.308
				v3.949c3.542-3.209,8.454-4.972,12.6-5.293v7.308c-9.509,0.277-12.597,8.732-12.6,16.044v18.313h-7.308
				C611.464-15.157,611.464-55.477,611.464-55.478z"/>
			<path id="path4149" sodipodi:nodetypes="cccccccccccccc" inkscape:connector-curvature="0" fill="#FFFFFF" d="M639.217-15.157
				v-40.321h7.308v40.321H639.217L639.217-15.157z M638.629-64.801c0.129-2.709,2.141-3.913,4.536-4.2
				c2.794,0.071,4.385,1.86,4.704,4.368c-0.12,2.788-2.011,4.218-4.536,4.452c-2.922,0.093-4.498-1.806-4.704-4.452V-64.801z"/>
			<path id="path4151" sodipodi:nodetypes="ccccccccccccc" inkscape:connector-curvature="0" fill="#FFFFFF" d="M689.482-73.37h7.98
				c-0.039,13.428-0.08,26.401,0.084,39.06c-1.074,12.915-9.89,20.097-20.58,20.496c-14.398-1.106-20.496-9.278-20.496-19.488
				c-0.618-11.668,8.198-21.245,18.48-22.008c4.272-0.079,8.342,0.539,11.928,2.604v7.811c-3.461-1.679-7.326-3.103-11.256-3.191
				c-9.468,0.913-12.155,7.87-12.012,13.775c-0.66,8.039,7.047,14.056,14.028,13.356c10.609-2.819,11.817-9.623,11.844-17.219
				V-73.37z"/>
			<path id="path4153" sodipodi:nodetypes="cccccccccccccccccccccc" inkscape:connector-curvature="0" fill="#FFFFFF" d="
				M737.747-15.157v-23.185c-0.346-7.546-6.82-10.388-13.189-10.416c-8.451-0.17-13.574,8.442-13.272,13.271
				c-0.179,8.196,4.501,13.627,12.937,13.86c4.458,0.167,8.052-2.424,10.92-5.291v9.156c-0.057,0.112-0.113,0.196-0.169,0.252l0,0
				l0,0l0,0v0.084l0,0c-3.334,2.382-7.303,2.932-11.088,2.94c-13.28-0.825-19.841-8.672-19.908-21.001
				c-0.109-12.158,9.801-20.314,21.168-20.495c5.702,0.076,11.499,1.538,15.289,5.376c3.195,3.311,5.258,7.579,5.291,11.844v23.604
				H737.747L737.747-15.157z"/>
			<path id="path4155" sodipodi:nodetypes="cccccccccccc" inkscape:connector-curvature="0" fill="#FFFFFF" d="M783.325-73.37h7.981
				c0.058,12.456,0.073,26.705,0.084,38.472c-1.511,16.418-11.501,20.578-20.58,21.084c-12.752-0.261-20.446-9.352-20.496-21.168
				c0.442-14.016,9.179-19.946,18.48-20.328c4.273-0.079,8.343,0.539,11.928,2.604c-0.07,2.292-0.42,7.727-0.42,7.727
				c-11.263-5.605-24.015-1.514-22.764,11.004c0.467,7.521,5.438,12.648,12.684,13.02c9.417-0.073,12.993-10.428,13.104-17.219
				V-73.37z"/>
			<path id="path4157" sodipodi:nodetypes="cccccccccccc" inkscape:connector-curvature="0" fill="#FFFFFF" d="M800.51-15.157
				v-58.885h18.481c17.557,2.26,27.387,15.125,25.704,31.921c-1.454,19.217-15.297,26.964-32.928,26.964v-7.896
				c15.041-1.486,22.97-6.712,24.276-19.825c2.084-16.509-13.24-23.403-26.964-23.856v51.577H800.51L800.51-15.157L800.51-15.157z"
				/>
			<path id="path4159" sodipodi:nodetypes="cccccccccccccc" inkscape:connector-curvature="0" fill="#FFFFFF" d="M854.631-15.157
				v-40.321h7.308v40.321H854.631L854.631-15.157z M854.043-64.801c0.129-2.709,2.141-3.913,4.536-4.2
				c2.858,0.473,4.387,1.877,4.703,4.368c-0.12,2.788-2.011,4.218-4.536,4.452c-2.922,0.093-4.498-1.806-4.703-4.452V-64.801z"/>
			<path id="path4161" sodipodi:nodetypes="cccccccccccccccccccc" inkscape:connector-curvature="0" fill="#FFFFFF" d="
				M880.452-4.573c5.437,1.52,11.871,3.033,17.388,1.175c5.152-1.717,8.859-6.282,8.4-11.675v-0.084v-18.48
				c-0.024-7.367-4.938-15.055-12.599-15.12c-11.968,0.607-13.552,8.697-13.86,15.287c1.855,13.02,15.751,15.233,23.855,9.241v7.727
				c-3.06,2.287-7.024,2.681-10.583,2.688c-12.563-0.353-20.337-9.929-20.58-21c-0.266-11.938,9.291-21.136,21.168-21.168
				c10.155-0.409,20.495,7.615,20.579,19.152v21.673c-1.141,9.145-5.927,16.87-14.616,18.983c-8.42,1.93-14.985,0.328-21.083-1.679
				l-0.085-0.085l0,0L880.452-4.573z"/>
			<path id="path4163" sodipodi:nodetypes="ccccccccccccccc" inkscape:connector-curvature="0" fill="#FFFFFF" d="M924.686-15.157
				v-40.321h7.308v40.321H924.686L924.686-15.157z M924.098-64.801c0-0.616,0.112-1.176,0.336-1.681
				c0.864-1.715,2.458-2.31,4.2-2.52c2.794,0.071,4.385,1.86,4.703,4.368c-0.038,2.601-2.41,4.233-4.536,4.452
				c-2.922,0.093-4.498-1.806-4.703-4.452V-64.801z"/>
			<path id="path4165" sodipodi:nodetypes="ccccccsscccccc" inkscape:connector-curvature="0" fill="#FFFFFF" d="M945.215-65.389
				h7.896v9.911h15.287v7.224h-15.287v20.496c0,0.784,0.056,1.484,0.167,2.1c0.113,0.616,0.28,1.204,0.504,1.764
				c3.657,2.918,9.458,1.509,13.944,1.427l-0.279,7.681c-6.493-0.271-14.962,1.728-19.209-3.732
				c-2.66-2.824-3.024-5.853-3.024-9.157C945.215-40.245,945.215-52.818,945.215-65.389L945.215-65.389z"/>
			<path id="path4167" sodipodi:nodetypes="ccccccccccccc" inkscape:connector-curvature="0" fill="#FFFFFF" d="M1004.02-15.157
				v-23.185c-0.486-7.308-6.894-10.349-13.187-10.416c-7.141-0.062-14.232,9.095-13.272,13.271
				c0.665,7.517,5.776,12.684,12.432,13.777c4.777,0.75,8.295-2.079,11.424-5.208c-0.119,3.091-0.217,6.426-0.169,9.408
				c-3.219,2.593-7.894,2.843-11.508,3.024c-12.868-1.442-19.424-9.101-19.488-21.001c-0.494-10.254,8.964-20.428,21.168-20.495
				c10.026,0.126,20.492,6.312,20.58,17.22v23.604H1004.02z"/>
			<path id="path4169" inkscape:connector-curvature="0" fill="#FFFFFF" d="M1019.863-74.042h7.896v58.885h-7.896V-74.042
				L1019.863-74.042L1019.863-74.042z"/>
		</g>
	</g>
</g>
</svg>
